<svg width="812" height="148" viewBox="0 0 812 148" fill="none" xmlns="http://www.w3.org/2000/svg">
<path d="M199.411 14V134.639H181V14H199.411ZM263.764 95.846C263.764 104.279 262.019 111.532 258.528 117.604C255.038 123.676 250.421 128.342 244.678 131.603C238.935 134.751 232.686 136.325 225.929 136.325C219.511 136.325 213.768 134.695 208.701 131.434C203.746 128.173 199.861 123.507 197.046 117.435C194.231 111.363 192.823 104.167 192.823 95.846C192.823 87.4128 194.231 80.2164 197.046 74.257C199.861 68.1851 203.746 63.5187 208.701 60.2579C213.768 56.997 219.511 55.3666 225.929 55.3666C232.686 55.3666 238.935 56.997 244.678 60.2579C250.421 63.4063 255.038 68.0164 258.528 74.0883C262.019 80.0478 263.764 87.3003 263.764 95.846ZM244.847 95.846C244.847 90.6736 243.777 86.2321 241.638 82.5215C239.498 78.8109 236.627 75.9998 233.023 74.0883C229.533 72.1768 225.648 71.221 221.369 71.221C217.878 71.221 214.444 72.1768 211.065 74.0883C207.687 75.9998 204.872 78.8109 202.62 82.5215C200.481 86.1197 199.411 90.5612 199.411 95.846C199.411 101.131 200.481 105.628 202.62 109.339C204.872 112.937 207.687 115.692 211.065 117.604C214.444 119.515 217.878 120.471 221.369 120.471C225.648 120.471 229.533 119.515 233.023 117.604C236.627 115.692 239.498 112.881 241.638 109.17C243.777 105.46 244.847 101.018 244.847 95.846Z" fill="white"/>
<path d="M274.89 95.846C274.89 87.8625 276.692 80.8349 280.295 74.763C284.011 68.6911 289.022 63.9685 295.328 60.5952C301.634 57.1095 308.784 55.3666 316.779 55.3666C324.774 55.3666 331.868 57.1095 338.061 60.5952C344.367 63.9685 349.378 68.6911 353.094 74.763C356.81 80.8349 358.668 87.8625 358.668 95.846C358.668 103.717 356.81 110.745 353.094 116.929C349.378 123.001 344.367 127.78 338.061 131.265C331.868 134.639 324.774 136.325 316.779 136.325C308.784 136.325 301.634 134.639 295.328 131.265C289.022 127.78 284.011 123.001 280.295 116.929C276.692 110.745 274.89 103.717 274.89 95.846ZM293.639 95.846C293.639 100.681 294.652 104.954 296.679 108.664C298.706 112.263 301.465 115.13 304.955 117.266C308.446 119.29 312.387 120.302 316.779 120.302C321.058 120.302 324.943 119.29 328.433 117.266C332.037 115.13 334.852 112.263 336.879 108.664C338.906 104.954 339.919 100.681 339.919 95.846C339.919 91.0109 338.906 86.7381 336.879 83.0275C334.852 79.3169 332.037 76.4496 328.433 74.4256C324.943 72.4017 321.058 71.3897 316.779 71.3897C312.387 71.3897 308.446 72.4017 304.955 74.4256C301.465 76.4496 298.706 79.3169 296.679 83.0275C294.652 86.7381 293.639 91.0109 293.639 95.846Z" fill="white"/>
<path d="M387.125 110.52C387.125 113.106 387.744 115.355 388.983 117.266C390.221 119.065 391.91 120.415 394.05 121.314C396.302 122.214 398.836 122.664 401.651 122.664C405.254 122.664 408.52 121.933 411.447 120.471C414.488 119.009 416.909 116.873 418.71 114.062C420.625 111.138 421.582 107.765 421.582 103.942L424.284 114.062C424.284 119.009 422.82 123.17 419.893 126.543C417.078 129.804 413.474 132.277 409.083 133.964C404.804 135.538 400.412 136.325 395.908 136.325C391.066 136.325 386.562 135.37 382.395 133.458C378.229 131.547 374.907 128.735 372.43 125.025C369.953 121.314 368.714 116.817 368.714 111.532C368.714 103.998 371.36 98.0386 376.652 93.6534C381.945 89.1556 389.433 86.9068 399.117 86.9068C404.297 86.9068 408.745 87.469 412.461 88.5934C416.289 89.7179 419.442 91.0672 421.92 92.6414C424.397 94.1031 426.142 95.4524 427.156 96.6893V105.966C423.665 103.492 419.949 101.693 416.008 100.569C412.067 99.4441 407.9 98.8819 403.509 98.8819C399.68 98.8819 396.584 99.3879 394.219 100.4C391.854 101.299 390.052 102.593 388.814 104.279C387.688 105.966 387.125 108.046 387.125 110.52ZM381.382 77.2929L373.95 64.4745C377.441 62.3381 381.945 60.2579 387.463 58.2339C393.093 56.2099 399.511 55.198 406.718 55.198C413.136 55.198 418.767 56.1537 423.609 58.0652C428.563 59.9768 432.448 62.7316 435.263 66.3298C438.078 69.8155 439.486 74.1445 439.486 79.3169V134.639H421.582V82.8588C421.582 80.3851 421.131 78.3611 420.231 76.7869C419.442 75.2127 418.316 73.9197 416.852 72.9077C415.389 71.8957 413.643 71.1648 411.616 70.715C409.589 70.2653 407.394 70.0404 405.029 70.0404C401.426 70.0404 397.991 70.4902 394.726 71.3897C391.573 72.1768 388.814 73.1888 386.449 74.4256C384.197 75.5501 382.508 76.5058 381.382 77.2929Z" fill="white"/>
<path d="M478.488 57.0533V134.639H460.415V57.0533H478.488ZM501.628 76.4496C499.939 75.1003 498.362 74.0883 496.898 73.4137C495.435 72.739 493.577 72.4017 491.325 72.4017C488.284 72.4017 485.807 73.1888 483.893 74.763C481.978 76.3372 480.571 78.5298 479.67 81.3409C478.882 84.0395 478.488 87.2441 478.488 90.9547L472.407 87.4128C472.407 81.2284 473.533 75.775 475.785 71.0524C478.15 66.2173 481.134 62.3943 484.737 59.5832C488.453 56.7721 492.282 55.3666 496.223 55.3666C499.038 55.3666 501.684 55.8164 504.162 56.7159C506.639 57.503 508.722 58.9648 510.411 61.1012L501.628 76.4496Z" fill="white"/>
<path d="M581.034 14H599.445V134.639H581.034V14ZM516.68 95.846C516.68 87.3003 518.426 80.0478 521.917 74.0883C525.407 68.0164 530.024 63.4063 535.767 60.2579C541.622 56.997 547.872 55.3666 554.516 55.3666C561.047 55.3666 566.733 56.997 571.575 60.2579C576.53 63.5187 580.415 68.1851 583.23 74.257C586.158 80.2164 587.621 87.4128 587.621 95.846C587.621 104.167 586.158 111.363 583.23 117.435C580.415 123.507 576.53 128.173 571.575 131.434C566.733 134.695 561.047 136.325 554.516 136.325C547.872 136.325 541.622 134.751 535.767 131.603C530.024 128.342 525.407 123.676 521.917 117.604C518.426 111.532 516.68 104.279 516.68 95.846ZM535.598 95.846C535.598 101.018 536.668 105.46 538.807 109.17C540.947 112.881 543.762 115.692 547.253 117.604C550.856 119.515 554.741 120.471 558.907 120.471C562.398 120.471 565.832 119.515 569.211 117.604C572.701 115.692 575.516 112.937 577.656 109.339C579.908 105.628 581.034 101.131 581.034 95.846C581.034 90.5612 579.908 86.1197 577.656 82.5215C575.516 78.8109 572.701 75.9998 569.211 74.0883C565.832 72.1768 562.398 71.221 558.907 71.221C554.741 71.221 550.856 72.1768 547.253 74.0883C543.762 75.9998 540.947 78.8109 538.807 82.5215C536.668 86.2321 535.598 90.6736 535.598 95.846Z" fill="white"/>
<path d="M621.718 14H639.96V134.639H621.718V14Z" fill="white"/>
<path d="M662.272 26.1877C662.272 23.0393 663.398 20.3969 665.65 18.2605C668.015 16.1241 670.717 15.0559 673.757 15.0559C677.023 15.0559 679.725 16.1241 681.865 18.2605C684.117 20.3969 685.243 23.0393 685.243 26.1877C685.243 29.2237 684.117 31.8661 681.865 34.1149C679.725 36.2514 677.023 37.3196 673.757 37.3196C670.717 37.3196 668.015 36.2514 665.65 34.1149C663.398 31.8661 662.272 29.2237 662.272 26.1877ZM664.805 57.0533H682.71V134.639H664.805V57.0533Z" fill="white"/>
<path d="M711.023 109.17C713.5 111.869 715.977 114.23 718.454 116.254C721.044 118.166 723.634 119.628 726.224 120.64C728.814 121.539 731.404 121.989 733.994 121.989C737.259 121.989 739.793 121.258 741.595 119.796C743.509 118.335 744.466 116.311 744.466 113.724C744.466 111.476 743.734 109.564 742.27 107.99C740.807 106.303 738.78 104.898 736.19 103.773C733.6 102.536 730.56 101.299 727.069 100.063C723.578 98.7133 720.087 97.1391 716.596 95.34C713.218 93.4285 710.403 90.9547 708.151 87.9188C706.012 84.8828 704.942 81.0598 704.942 76.4496C704.942 71.727 706.124 67.7915 708.489 64.6431C710.966 61.4947 714.232 59.1897 718.286 57.7279C722.452 56.1537 726.9 55.3666 731.629 55.3666C735.908 55.3666 739.906 55.985 743.622 57.2219C747.45 58.4588 750.885 60.0892 753.925 62.1132C756.965 64.1371 759.555 66.4422 761.695 69.0284L751.56 79.8229C748.97 76.7869 745.874 74.3132 742.27 72.4017C738.667 70.4902 734.951 69.5344 731.123 69.5344C728.533 69.5344 726.393 70.0966 724.704 71.221C723.015 72.3455 722.17 73.9759 722.17 76.1123C722.17 77.9114 722.902 79.5418 724.366 81.0035C725.943 82.3529 727.97 83.5897 730.447 84.7142C733.037 85.8386 735.908 87.0192 739.061 88.2561C743.34 89.9427 747.281 91.798 750.885 93.822C754.488 95.846 757.359 98.3197 759.499 101.243C761.751 104.167 762.877 107.99 762.877 112.712C762.877 120.021 760.343 125.924 755.276 130.422C750.322 134.807 743.565 137 735.007 137C729.715 137 724.817 136.213 720.312 134.639C715.921 132.952 712.036 130.816 708.658 128.229C705.392 125.531 702.634 122.72 700.381 119.796L711.023 109.17Z" fill="white"/>
<path d="M767.915 57.0533H812V73.0763H767.915V57.0533ZM780.921 30.067H798.994V134.639H780.921V30.067Z" fill="white"/>
<g filter="url(#filter0_ii_2_2)">
<path d="M0.433059 102.647C-0.33955 98.0727 0.0392502 93.3983 0.653823 88.7997C5.20324 54.7587 11.5794 19.5152 15.8988 0C32.147 4.79798 47.6239 25.4708 54.5491 38.8965C57.2197 44.074 57.944 49.9216 57.944 55.7458V144.071C57.944 146.499 55.8264 148.384 53.4381 147.933C34.8534 144.419 5.34815 131.75 0.433059 102.647Z" fill="url(#paint0_linear_2_2)"/>
<path d="M124.567 102.647C125.34 98.0727 124.961 93.3983 124.346 88.7997C119.797 54.7587 113.421 19.5152 109.101 0C92.853 4.79798 77.3761 25.4708 70.4509 38.8965C67.7803 44.074 67.056 49.9216 67.056 55.7458V144.071C67.056 146.499 69.1736 148.384 71.5619 147.933C90.1466 144.419 119.652 131.75 124.567 102.647Z" fill="url(#paint1_linear_2_2)"/>
</g>
<defs>
<filter id="filter0_ii_2_2" x="0" y="-7" width="125" height="162" filterUnits="userSpaceOnUse" color-interpolation-filters="sRGB">
<feFlood flood-opacity="0" result="BackgroundImageFix"/>
<feBlend mode="normal" in="SourceGraphic" in2="BackgroundImageFix" result="shape"/>
<feColorMatrix in="SourceAlpha" type="matrix" values="0 0 0 0 0 0 0 0 0 0 0 0 0 0 0 0 0 0 127 0" result="hardAlpha"/>
<feOffset dy="10"/>
<feGaussianBlur stdDeviation="3.5"/>
<feComposite in2="hardAlpha" operator="arithmetic" k2="-1" k3="1"/>
<feColorMatrix type="matrix" values="0 0 0 0 1 0 0 0 0 1 0 0 0 0 1 0 0 0 0.3 0"/>
<feBlend mode="normal" in2="shape" result="effect1_innerShadow_2_2"/>
<feColorMatrix in="SourceAlpha" type="matrix" values="0 0 0 0 0 0 0 0 0 0 0 0 0 0 0 0 0 0 127 0" result="hardAlpha"/>
<feOffset dy="-7"/>
<feGaussianBlur stdDeviation="3.5"/>
<feComposite in2="hardAlpha" operator="arithmetic" k2="-1" k3="1"/>
<feColorMatrix type="matrix" values="0 0 0 0 0 0 0 0 0 0.0495 0 0 0 0 0.225 0 0 0 0.5 0"/>
<feBlend mode="normal" in2="effect1_innerShadow_2_2" result="effect2_innerShadow_2_2"/>
</filter>
<linearGradient id="paint0_linear_2_2" x1="62.5" y1="0" x2="62.5" y2="148" gradientUnits="userSpaceOnUse">
<stop stop-color="#007AFF"/>
<stop offset="1" stop-color="#00E0FF"/>
</linearGradient>
<linearGradient id="paint1_linear_2_2" x1="62.5" y1="0" x2="62.5" y2="148" gradientUnits="userSpaceOnUse">
<stop stop-color="#007AFF"/>
<stop offset="1" stop-color="#00E0FF"/>
</linearGradient>
</defs>
</svg>
